<?xml version="1.0" encoding="UTF-8" standalone="no"?>
<!-- Created with Inkscape (http://www.inkscape.org/) -->

<svg
   xmlns:dc="http://purl.org/dc/elements/1.1/"
   xmlns:cc="http://creativecommons.org/ns#"
   xmlns:rdf="http://www.w3.org/1999/02/22-rdf-syntax-ns#"
   xmlnsSvg="http://www.w3.org/2000/svg"
   xmlns="http://www.w3.org/2000/svg"
   xmlns:sodipodi="http://sodipodi.sourceforge.net/DTD/sodipodi-0.dtd"
   xmlns:inkscape="http://www.inkscape.org/namespaces/inkscape"
   width="60.880718"
   height="33.526207"
   id="svg46275"
   version="1.1"
   inkscape:version="0.48.5 r10040"
   sodipodi:docname="New document 53">
  <defs
     id="defs46277" />
  <sodipodi:namedview
     id="base"
     pagecolor="#ffffff"
     bordercolor="#666666"
     borderopacity="1.0"
     inkscape:pageopacity="0.0"
     inkscape:pageshadow="2"
     inkscape:zoom="5.6"
     inkscape:cx="37.110668"
     inkscape:cy="11.107165"
     inkscape:document-units="px"
     inkscape:current-layer="layer1"
     showgrid="false"
     fit-margin-top="0"
     fit-margin-left="0"
     fit-margin-right="0"
     fit-margin-bottom="0"
     inkscape:window-width="1280"
     inkscape:window-height="740"
     inkscape:window-x="0"
     inkscape:window-y="25"
     inkscape:window-maximized="1" />
  <metadata
     id="metadata46280">
    <rdf:RDF>
      <cc:Work
         rdf:about="">
        <dc:format>image/svg+xml</dc:format>
        <dc:type
           rdf:resource="http://purl.org/dc/dcmitype/StillImage" />
        <dc:title></dc:title>
      </cc:Work>
    </rdf:RDF>
  </metadata>
  <g
     inkscape:label="Layer 1"
     inkscape:groupmode="layer"
     id="layer1"
     transform="translate(-344.55976,-515.59905)">
    <g
       transform="matrix(0.74434058,0,0,0.74434058,-323.03127,-37.30586)"
       id="g46172">
      <path
         id="path5693"
         sodipodi:rx="328.01666"
         sodipodi:ry="328.01666"
         style="fill:#ffffff;fill-opacity:1;fill-rule:evenodd;stroke:#000000;stroke-width:41.27409744;stroke-opacity:1"
         sodipodi:type="arc"
         d="m 3095.5853,6537.4478 c 0,181.1586 -146.8581,328.0166 -328.0167,328.0166 -181.1586,0 -328.0167,-146.858 -328.0167,-328.0166 0,-181.1586 146.8581,-328.0167 328.0167,-328.0167 179.5495,0 325.7324,144.3557 327.9907,323.891"
         sodipodi:open="true"
         transform="matrix(0.01777399,9.7421266e-4,-0.00110651,0.01849607,914.47442,636.00369)"
         sodipodi:cy="6537.4478"
         sodipodi:cx="2767.5686"
         sodipodi:end="6.2706074"
         sodipodi:start="0" />
      <path
         d="m 956.16887,756.29441 0.21153,-0.48351 c 1.19709,0.12687 2.28519,0.66685 3.31661,1.4144 -0.0494,0.12273 -0.12308,0.23067 -0.22457,0.31906 -0.1655,0.14753 -0.38109,0.27196 -0.64471,0.37124 -0.26356,0.0994 -0.62313,0.19083 -1.07874,0.27462 -0.70505,0.13225 -1.19918,0.26325 -1.48469,0.39266 -0.2856,0.13171 -0.46969,0.29157 -0.55237,0.48195 -0.0877,0.19906 -0.0728,0.40401 0.0411,0.61459 0.11356,0.21058 0.31257,0.37672 0.59278,0.49593 0.29548,0.12686 0.56518,0.15561 0.80692,0.0866 0.24166,-0.0692 0.41916,-0.23166 0.53476,-0.48743 l 0.60933,0.32418 c -0.21161,0.36689 -0.50253,0.5902 -0.87484,0.6698 -0.37247,0.0818 -0.79501,0.0196 -1.27234,-0.18275 -0.48169,-0.20475 -0.81367,-0.47718 -1.00062,-0.81531 -0.18485,-0.33577 -0.20645,-0.66442 -0.0645,-0.98598 0.0721,-0.16405 0.18357,-0.30793 0.33417,-0.43163 0.15274,-0.12129 0.36085,-0.23051 0.62852,-0.32283 0.26776,-0.0945 0.68857,-0.19829 1.26493,-0.31554 0.48078,-0.0936 0.79441,-0.16531 0.93833,-0.2109 0.14375,-0.0433 0.2703,-0.0988 0.37914,-0.15992 -0.60207,-0.72522 -1.59744,-0.771 -2.46059,-1.04918 z"
         style="fill:#000000;fill-opacity:1;fill-rule:evenodd;stroke:#000000;stroke-width:0.74958462;stroke-opacity:1"
         sodipodi:nodetypes="cccssssssssccsssssssscc"
         id="path5697-5"
         inkscape:connector-curvature="0" />
      <path
         id="path5703"
         sodipodi:rx="328.01666"
         sodipodi:ry="328.01666"
         style="fill:#ffffff;fill-opacity:1;fill-rule:evenodd;stroke:#000000;stroke-width:42.5884819;stroke-opacity:1"
         sodipodi:type="arc"
         d="m 3095.5853,6537.4478 c 0,181.1586 -146.8581,328.0166 -328.0167,328.0166 -181.1586,0 -328.0167,-146.858 -328.0167,-328.0166 0,-181.1586 146.8581,-328.0167 328.0167,-328.0167 179.5495,0 325.7324,144.3557 327.9907,323.891"
         sodipodi:open="true"
         transform="matrix(0.01740289,0.00101599,-9.9654279e-4,0.01774247,904.33577,637.64531)"
         sodipodi:cy="6537.4478"
         sodipodi:cx="2767.5686"
         sodipodi:end="6.2706074"
         sodipodi:start="0" />
      <path
         id="path5705"
         sodipodi:rx="328.01666"
         sodipodi:ry="328.01666"
         style="fill:#ffffff;fill-opacity:1;fill-rule:evenodd;stroke:#000000;stroke-width:41.38683701;stroke-opacity:1"
         sodipodi:type="arc"
         d="m 3095.5853,6537.4478 c 0,181.1586 -146.8581,328.0166 -328.0167,328.0166 -181.1586,0 -328.0167,-146.858 -328.0167,-328.0166 0,-181.1586 146.8581,-328.0167 328.0167,-328.0167 179.5495,0 325.7324,144.3557 327.9907,323.891"
         sodipodi:open="true"
         transform="matrix(0.01808205,0.00103543,-0.00103543,0.01808205,902.311,633.80894)"
         sodipodi:cy="6537.4478"
         sodipodi:cx="2767.5686"
         sodipodi:end="6.2706074"
         sodipodi:start="0" />
      <text
         id="text5709"
         style="font-size:6.3721242px;line-height:125%;fill:#000000;fill-opacity:1;fill-rule:evenodd;stroke:#000000;stroke-width:0.74958462;stroke-opacity:1;font-family:Arial"
         xml:space="preserve"
         transform="matrix(0.86962148,-0.62655855,0.80284108,0.57148204,0,0)"
         sodipodi:linespacing="125%"
         y="1249.0737"
         x="-66.650436"><tspan
           id="tspan5711"
           sodipodi:role="line"
           x="-66.650436"
           style="fill:#000000;fill-opacity:1;stroke:#000000;stroke-width:0.74958462;stroke-opacity:1"
           y="1249.0737">4</tspan></text>
      <path
         inkscape:connector-curvature="0"
         id="path5713"
         sodipodi:nodetypes="cccsccsccc"
         style="fill:#000000;fill-opacity:1;fill-rule:evenodd;stroke:#000000;stroke-width:0.74958462;stroke-opacity:1"
         d="m 949.13154,752.4793 -0.50439,0.30975 c -0.88975,-0.79326 -1.79225,-1.63883 -2.74738,-2.11291 -0.0255,0.0951 -0.0873,0.19461 -0.18754,0.29876 -0.10242,0.10404 -0.20583,0.18781 -0.31701,0.24872 l -0.41264,-0.31293 c 0.17107,-0.12919 0.28461,-0.27075 0.33845,-0.42691 0.0539,-0.15381 0.048,-0.29327 -0.0144,-0.42241 l 0.26063,-0.12632 c 1.49213,0.69096 2.57729,1.5582 3.58385,2.54429 z" />
      <path
         id="path5719"
         sodipodi:rx="328.01666"
         sodipodi:ry="328.01666"
         style="fill:#ffffff;fill-opacity:1;fill-rule:evenodd;stroke:#000000;stroke-width:46.90252304;stroke-opacity:1"
         sodipodi:type="arc"
         d="m 3095.5853,6537.4478 c 0,181.1586 -146.8581,328.0166 -328.0167,328.0166 -181.1586,0 -328.0167,-146.858 -328.0167,-328.0166 0,-181.1586 146.8581,-328.0167 328.0167,-328.0167 179.5495,0 325.7324,144.3557 327.9907,323.891"
         sodipodi:open="true"
         transform="matrix(0.01633754,9.3557157e-4,-8.9230555e-4,0.01558263,888.60364,650.63121)"
         sodipodi:cy="6537.4478"
         sodipodi:cx="2767.5686"
         sodipodi:end="6.2706074"
         sodipodi:start="0" />
      <path
         inkscape:connector-curvature="0"
         id="path5725"
         sodipodi:nodetypes="cccssssssssccsssssssscc"
         style="fill:#ffffff;fill-opacity:1;fill-rule:evenodd;stroke:#000000;stroke-width:0.74958462;stroke-opacity:1"
         d="m 925.91525,756.03616 -0.32869,0.31982 c -0.25471,-0.68514 -0.32876,-1.36216 -0.18957,-2.02698 0.0823,-0.0827 0.16352,-0.14537 0.24115,-0.18803 0.13099,-0.071 0.26251,-0.10835 0.39451,-0.11428 0.13422,-0.004 0.29023,0.0234 0.47035,0.0807 0.27939,0.09 0.49834,0.12488 0.65499,0.10026 0.15651,-0.0246 0.29969,-0.1017 0.42914,-0.2266 0.13692,-0.13351 0.24512,-0.2977 0.3293,-0.49471 0.0843,-0.19926 0.11608,-0.38358 0.0999,-0.55494 -0.0162,-0.1803 -0.0805,-0.27821 -0.18785,-0.29108 -0.10997,-0.0108 -0.25322,0.0685 -0.4275,0.23791 l 0,-0.42396 c 0.26709,-0.22916 0.47711,-0.32477 0.6301,-0.28684 0.15525,0.0403 0.2446,0.20461 0.27263,0.49552 0.0277,0.29539 -0.0248,0.5996 -0.15831,0.91715 -0.13099,0.31545 -0.30838,0.58112 -0.52755,0.79508 -0.11195,0.10799 -0.22496,0.19121 -0.3362,0.24538 -0.11375,0.0562 -0.23515,0.083 -0.36445,0.0823 -0.13172,10e-4 -0.31317,-0.0336 -0.54682,-0.1008 -0.19414,-0.0582 -0.32644,-0.0882 -0.3921,-0.092 -0.0683,-0.004 -0.13657,0.004 -0.20113,0.0221 -0.0812,0.55601 0.0232,1.03293 0.13962,1.50383 z" />
      <text
         id="text5727"
         style="font-size:4.19264412px;line-height:125%;fill:#ffffff;fill-opacity:1;fill-rule:evenodd;stroke:#000000;stroke-width:0.74958462;stroke-opacity:1;font-family:Arial"
         sodipodi:linespacing="125%"
         transform="matrix(0.10086129,0.97196713,-0.9397132,0.85889899,0,0)"
         y="-824.19934"
         x="1506.8123"
         xml:space="preserve"><tspan
           id="tspan5729"
           sodipodi:role="line"
           x="1506.8123"
           style="fill:#ffffff;fill-opacity:1;stroke:#000000;stroke-width:0.74958462;stroke-opacity:1"
           y="-824.19934">4</tspan></text>
      <path
         id="path5735"
         sodipodi:rx="328.01666"
         sodipodi:ry="328.01666"
         style="fill:#ffffff;fill-opacity:1;fill-rule:evenodd;stroke:#000000;stroke-width:38.58488464;stroke-opacity:1"
         sodipodi:type="arc"
         d="m 3095.5853,6537.4478 c 0,181.1586 -146.8581,328.0166 -328.0167,328.0166 -181.1586,0 -328.0167,-146.858 -328.0167,-328.0166 0,-181.1586 146.8581,-328.0167 328.0167,-328.0167 179.5495,0 325.7324,144.3557 327.9907,323.891"
         sodipodi:open="true"
         transform="matrix(0.01907018,0.00104987,-0.00117495,0.0197256,877.07533,630.67934)"
         sodipodi:cy="6537.4478"
         sodipodi:cx="2767.5686"
         sodipodi:end="6.2706074"
         sodipodi:start="0" />
      <path
         id="path5737-6"
         sodipodi:rx="328.01666"
         sodipodi:ry="328.01666"
         style="fill:#ffffff;fill-opacity:1;fill-rule:evenodd;stroke:#000000;stroke-width:42.81978607;stroke-opacity:1"
         sodipodi:type="arc"
         d="m 3095.5853,6537.4478 c 0,181.1586 -146.8581,328.0166 -328.0167,328.0166 -181.1586,0 -328.0167,-146.858 -328.0167,-328.0166 0,-181.1586 146.8581,-328.0167 328.0167,-328.0167 179.5495,0 325.7324,144.3557 327.9907,323.891"
         sodipodi:open="true"
         transform="matrix(0.01747694,0.00100081,-0.00100081,0.01747694,880.08895,644.8747)"
         sodipodi:cy="6537.4478"
         sodipodi:cx="2767.5686"
         sodipodi:end="6.2706074"
         sodipodi:start="0" />
      <path
         d="m 919.38496,763.0343 -0.32322,-0.39539 c 0.60814,-0.72211 1.3165,-1.20826 2.04261,-1.65648 -0.37584,-0.0877 -0.43235,-0.19561 -0.76239,-0.38914 l 0.31016,-0.25155 c 0.43918,0.27515 0.63904,0.29955 1.14546,0.31076 l 0.20905,0.25574 c -1.01757,0.62566 -1.98865,1.27909 -2.62167,2.12606 z m 1.59857,2.03021 -0.32316,-0.39539 c 0.6942,-0.45172 1.39327,-0.878 2.04263,-1.65646 -0.37593,-0.0877 -0.40831,-0.17268 -0.73842,-0.3629 l 0.31025,-0.25157 c 0.43919,0.27516 0.61489,0.27331 1.12138,0.28454 l 0.20898,0.25572 c -0.87777,0.77727 -1.75687,1.60469 -2.62166,2.12606 z"
         sodipodi:nodetypes="cccccccccccccccc"
         style="fill:#000000;fill-opacity:1;fill-rule:evenodd;stroke:#000000;stroke-width:0.74958462;stroke-opacity:1"
         id="path5739"
         inkscape:connector-curvature="0" />
      <path
         id="path5747"
         sodipodi:rx="328.01666"
         sodipodi:ry="328.01666"
         style="fill:#ffffff;fill-opacity:1;fill-rule:evenodd;stroke:#000000;stroke-width:42.58121872;stroke-opacity:1"
         sodipodi:type="arc"
         d="m 3095.5853,6537.4478 c 0,181.1586 -146.8581,328.0166 -328.0167,328.0166 -181.1586,0 -328.0167,-146.858 -328.0167,-328.0166 0,-181.1586 146.8581,-328.0167 328.0167,-328.0167 179.5495,0 325.7324,144.3557 327.9907,323.891"
         sodipodi:open="true"
         transform="matrix(0.01757485,0.00100638,-0.00100638,0.01757485,908.51883,644.82782)"
         sodipodi:cy="6537.4478"
         sodipodi:cx="2767.5686"
         sodipodi:end="6.2706074"
         sodipodi:start="0" />
      <text
         xml:space="preserve"
         x="924.15564"
         y="1234.3253"
         transform="matrix(1.0989773,-0.41260339,-0.05325053,0.92992944,0,0)"
         sodipodi:linespacing="125%"
         style="font-size:6.15319395px;line-height:125%;fill:#000000;fill-opacity:1;fill-rule:evenodd;stroke:#000000;stroke-width:0.74958456;stroke-opacity:1;font-family:Arial"
         id="text5749"><tspan
           sodipodi:role="line"
           style="fill:#000000;fill-opacity:1;stroke:#000000;stroke-width:0.74958456;stroke-opacity:1"
           x="924.15564"
           y="1234.3253"
           id="tspan5751">9</tspan></text>
      <path
         id="path5759"
         sodipodi:rx="328.01666"
         sodipodi:ry="328.01666"
         style="fill:#ffffff;fill-opacity:1;fill-rule:evenodd;stroke:#000000;stroke-width:41.3906517;stroke-opacity:1"
         sodipodi:type="arc"
         d="m 3095.5853,6537.4478 c 0,181.1586 -146.8581,328.0166 -328.0167,328.0166 -181.1586,0 -328.0167,-146.858 -328.0167,-328.0166 0,-181.1586 146.8581,-328.0167 328.0167,-328.0167 179.5495,0 325.7324,144.3557 327.9907,323.891"
         sodipodi:open="true"
         transform="matrix(0.01808038,0.00103539,-0.00103539,0.01808038,918.64016,645.12837)"
         sodipodi:cy="6537.4478"
         sodipodi:cx="2767.5686"
         sodipodi:end="6.2706074"
         sodipodi:start="0" />
      <path
         inkscape:connector-curvature="0"
         id="path5761"
         style="fill:#000000;fill-opacity:1;fill-rule:evenodd;stroke:#000000;stroke-width:0.74958485;stroke-opacity:1"
         sodipodi:nodetypes="cccccccccccccccc"
         d="m 964.75627,769.63443 -0.0473,-1.04973 c -0.72807,0.42587 -1.44992,0.68924 -2.16241,0.82735 l -0.0683,-0.4633 c 0.49105,-1.19118 1.18171,-2.45518 2.02133,-3.64964 l 0.62763,-0.32274 0.10601,2.83491 0.73039,-0.47307 0.0428,0.4641 -0.70514,0.47224 0.0645,1.08339 -0.60898,0.27649 z m -0.13117,-1.57209 -0.0144,-1.97295 c -0.60139,0.8013 -1.19131,1.86957 -1.51581,2.71455 0.46114,-0.16532 0.9582,-0.4804 1.53006,-0.7416 z" />
      <path
         id="path5769"
         sodipodi:rx="328.01666"
         sodipodi:ry="328.01666"
         style="fill:#ffffff;fill-opacity:1;fill-rule:evenodd;stroke:#000000;stroke-width:38.19311142;stroke-opacity:1"
         sodipodi:type="arc"
         d="m 3095.5853,6537.4478 c 0,181.1586 -146.8581,328.0166 -328.0167,328.0166 -181.1586,0 -328.0167,-146.858 -328.0167,-328.0166 0,-181.1586 146.8581,-328.0167 328.0167,-328.0167 179.5495,0 325.7324,144.3557 327.9907,323.891"
         sodipodi:open="true"
         transform="matrix(0.01959407,0.00112206,-0.00112206,0.01959407,867.2644,636.63304)"
         sodipodi:cy="6537.4478"
         sodipodi:cx="2767.5686"
         sodipodi:end="6.2706074"
         sodipodi:start="0" />
      <path
         inkscape:connector-curvature="0"
         id="path5771"
         sodipodi:nodetypes="ccccscccsscc"
         style="fill:#000000;fill-opacity:1;fill-rule:evenodd;stroke:#000000;stroke-width:0.74958473;stroke-opacity:1"
         d="m 913.73032,770.96933 -0.6747,-0.23325 c 1.30502,-0.75091 2.45691,-2.05316 3.25649,-3.17705 l 0.22945,0.42204 c -0.0413,0.41634 0,0.86898 0.1265,1.36169 0.12507,0.49273 0.32434,0.92681 0.59772,1.3022 0.1931,0.26662 0.49031,0.53526 0.81803,0.7506 -0.20959,0.22783 -0.3865,0.39857 -0.60987,0.59219 -0.27637,-0.15148 -0.5427,-0.44391 -0.81015,-0.78555 -0.26954,-0.3398 -0.46722,-0.73249 -0.59135,-1.17405 -0.12596,-0.44362 -0.17807,-0.8732 -0.15417,-1.28858 -0.47036,0.6611 -1.12745,1.35672 -2.18788,2.22976 z" />
      <path
         id="path5777"
         sodipodi:rx="328.01666"
         sodipodi:ry="328.01666"
         style="fill:#ffffff;fill-opacity:1;fill-rule:evenodd;stroke:#000000;stroke-width:38.33240509;stroke-opacity:1"
         sodipodi:type="arc"
         d="m 3095.5853,6537.4478 c 0,181.1586 -146.8581,328.0166 -328.0167,328.0166 -181.1586,0 -328.0167,-146.858 -328.0167,-328.0166 0,-181.1586 146.8581,-328.0167 328.0167,-328.0167 179.5495,0 325.7324,144.3557 327.9907,323.891"
         sodipodi:open="true"
         transform="matrix(0.01868371,0.00106988,-0.00116815,0.02039975,887.05171,629.16324)"
         sodipodi:cy="6537.4478"
         sodipodi:cx="2767.5686"
         sodipodi:end="6.2706074"
         sodipodi:start="0" />
      <path
         d="m 934.06669,767.33086 -0.5388,0.46106 -1.48724,-2.73348 c -0.19182,0.51738 -0.241,0.5667 -0.54563,1.02332 l -0.2254,-0.41432 c 0.24024,-0.37009 0.17825,-0.31702 0.3158,-0.67179 0.13836,-0.35305 0.21356,-0.64483 0.22472,-0.87696 l 0.34722,-0.29713 1.90933,3.5093 z"
         sodipodi:nodetypes="cccccsccc"
         style="fill:#000000;fill-opacity:1;fill-rule:evenodd;stroke:#000000;stroke-width:0.74958456;stroke-opacity:1"
         id="path5781"
         inkscape:connector-curvature="0" />
      <path
         id="path5789"
         sodipodi:rx="328.01666"
         sodipodi:ry="328.01666"
         style="fill:#ffffff;fill-opacity:1;fill-rule:evenodd;stroke:#000000;stroke-width:37.5667038;stroke-opacity:1"
         sodipodi:type="arc"
         d="m 3095.5853,6537.4478 c 0,181.1586 -146.8581,328.0166 -328.0167,328.0166 -181.1586,0 -328.0167,-146.858 -328.0167,-328.0166 0,-181.1586 146.8581,-328.0167 328.0167,-328.0167 179.5495,0 325.7324,144.3557 327.9907,323.891"
         sodipodi:open="true"
         transform="matrix(0.0199208,0.00114073,-0.00114073,0.0199208,875.90591,639.71035)"
         sodipodi:cy="6537.4478"
         sodipodi:cx="2767.5686"
         sodipodi:end="6.2706074"
         sodipodi:start="0" />
      <path
         inkscape:connector-curvature="0"
         id="path5793"
         style="fill:#000000;fill-opacity:1;fill-rule:evenodd;stroke:#000000;stroke-width:0.74958462;stroke-opacity:1"
         sodipodi:nodetypes="cccssssssssccsssssssscc"
         d="m 922.87119,768.13238 0.27714,-0.41576 c 1.00653,0.18157 1.81092,0.50776 2.46672,0.9406 -0.0645,0.10458 -0.15041,0.19851 -0.2529,0.27879 -0.16999,0.13495 -0.37435,0.25198 -0.61578,0.35485 -0.24018,0.10099 -0.55755,0.20162 -0.95356,0.30406 -0.6151,0.16028 -1.05653,0.30375 -1.32152,0.43418 -0.2637,0.12848 -0.45095,0.27396 -0.56098,0.43911 -0.11392,0.17089 -0.14393,0.33983 -0.0933,0.50777 0.051,0.16801 0.18042,0.29054 0.3903,0.37056 0.22016,0.0839 0.43852,0.0893 0.65431,0.0126 0.21462,-0.074 0.39774,-0.22115 0.54742,-0.44184 l 0.44008,0.22626 c -0.25313,0.31773 -0.54284,0.52402 -0.86921,0.61886 -0.32645,0.0949 -0.66728,0.072 -1.02117,-0.0629 -0.35799,-0.13657 -0.57971,-0.33802 -0.66397,-0.60648 -0.0836,-0.26574 -0.0331,-0.53889 0.15094,-0.81478 0.0945,-0.14178 0.2173,-0.26799 0.37097,-0.3824 0.1504,-0.11321 0.34774,-0.21587 0.59068,-0.31328 0.24301,-0.0974 0.61481,-0.21392 1.11882,-0.35068 0.42203,-0.11446 0.69735,-0.1946 0.8253,-0.2433 0.12992,-0.048 0.24758,-0.10045 0.35081,-0.15867 -0.41386,-0.40877 -1.14559,-0.53427 -1.83102,-0.69818 z" />
      <text
         id="text5795"
         style="font-size:6.27607584px;line-height:125%;fill:#000000;fill-opacity:1;fill-rule:evenodd;stroke:#000000;stroke-width:0.74958462;stroke-opacity:1;font-family:Arial"
         sodipodi:linespacing="125%"
         transform="matrix(-0.76245597,-0.76543995,0.71142244,-0.59734445,0,0)"
         y="122.78217"
         x="-1103.9775"
         xml:space="preserve"><tspan
           id="tspan5797"
           sodipodi:role="line"
           x="-1103.9775"
           style="fill:#000000;fill-opacity:1;stroke:#000000;stroke-width:0.74958462;stroke-opacity:1"
           y="122.78217">3</tspan></text>
      <path
         sodipodi:start="0"
         sodipodi:end="6.2706074"
         sodipodi:cx="2767.5686"
         sodipodi:cy="6537.4478"
         transform="matrix(0.019081,0.00109271,-0.00106402,0.01858123,910.04701,646.60311)"
         sodipodi:open="true"
         d="m 3095.5853,6537.4478 c 0,181.1586 -146.8581,328.0166 -328.0167,328.0166 -181.1586,0 -328.0167,-146.858 -328.0167,-328.0166 0,-181.1586 146.8581,-328.0167 328.0167,-328.0167 179.5495,0 325.7324,144.3557 327.9907,323.891"
         sodipodi:type="arc"
         style="fill:#ffffff;fill-opacity:1;fill-rule:evenodd;stroke:#000000;stroke-width:39.74403763;stroke-opacity:1"
         sodipodi:ry="328.01666"
         sodipodi:rx="328.01666"
         id="path5807" />
      <text
         id="text5809"
         style="font-size:6.67344475px;line-height:125%;fill:#000000;fill-opacity:1;fill-rule:evenodd;stroke:#000000;stroke-width:0.74958462;stroke-opacity:1;font-family:Arial"
         sodipodi:linespacing="125%"
         transform="matrix(0.80975447,-0.97972201,0.61855396,0.48655374,0,0)"
         xml:space="preserve"
         y="1566.7791"
         x="-14.035507"><tspan
           id="tspan5811"
           sodipodi:role="line"
           x="-14.035507"
           style="fill:#000000;fill-opacity:1;stroke:#000000;stroke-width:0.74958462;stroke-opacity:1"
           y="1566.7791">8</tspan></text>
      <path
         sodipodi:start="0"
         sodipodi:end="6.2706074"
         sodipodi:cx="2767.5686"
         sodipodi:cy="6537.4478"
         transform="matrix(0.01715389,9.8227819e-4,-9.8227819e-4,0.01715389,896.08194,639.98028)"
         sodipodi:open="true"
         d="m 3095.5853,6537.4478 c 0,181.1586 -146.8581,328.0166 -328.0167,328.0166 -181.1586,0 -328.0167,-146.858 -328.0167,-328.0166 0,-181.1586 146.8581,-328.0167 328.0167,-328.0167 179.5495,0 325.7324,144.3557 327.9907,323.891"
         sodipodi:type="arc"
         style="fill:#ffffff;fill-opacity:1;fill-rule:evenodd;stroke:#000000;stroke-width:43.62615585;stroke-opacity:1"
         sodipodi:ry="328.01666"
         sodipodi:rx="328.01666"
         id="path5821" />
      <path
         d="m 938.25118,755.70598 0.0818,-0.39282 c 0.79845,0.18609 1.60756,0.19468 2.41231,0.2587 l -0.0667,0.31969 c -0.28387,0.18776 -0.58101,0.45113 -0.89155,0.79006 -0.31056,0.33897 -0.56992,0.69691 -0.78032,1.07347 -0.14897,0.26551 -0.27053,0.56128 -0.36573,0.89152 l -0.46894,-0.0751 c 0.0593,-0.26253 0.18372,-0.57086 0.37081,-0.92742 0.18658,-0.35446 0.4194,-0.68859 0.69824,-1.00237 0.27622,-0.31207 0.55537,-0.56967 0.83677,-0.76862 -0.61249,0.004 -1.22279,-0.0381 -1.82681,-0.16712 z"
         style="fill:#000000;fill-opacity:1;fill-rule:evenodd;stroke:#000000;stroke-width:0.74958473;stroke-opacity:1"
         sodipodi:nodetypes="ccccssccsscc"
         id="path5823"
         inkscape:connector-curvature="0" />
      <path
         d="m 936.77824,757.96622 -0.0809,0.3916 c -0.81195,-0.13693 -1.61572,-0.27867 -2.28742,-0.53834 0.0162,-0.0994 0.0539,-0.18968 0.10889,-0.27176 0.0925,-0.13531 0.21902,-0.26095 0.38409,-0.37609 0.1628,-0.11572 0.39165,-0.23879 0.68302,-0.37464 0.45461,-0.2076 0.76884,-0.38443 0.94177,-0.52631 0.17287,-0.14196 0.2754,-0.29029 0.30695,-0.44315 0.0331,-0.16119 -4.5e-4,-0.31083 -0.1035,-0.44918 -0.1035,-0.1362 -0.25448,-0.22813 -0.45845,-0.27243 -0.46796,-0.0753 -0.65782,-0.0144 -0.83825,0.38469 l -0.36849,-0.16316 c 0.31976,-0.48197 0.65085,-0.62452 1.28741,-0.5541 0.34601,0.0751 0.60273,0.2228 0.76801,0.44249 0.16532,0.21971 0.22338,0.45988 0.16981,0.71957 -0.0269,0.13189 -0.0839,0.25531 -0.16981,0.37011 -0.0859,0.11482 -0.21257,0.22954 -0.37898,0.33999 -0.16693,0.11249 -0.43349,0.25597 -0.80528,0.43342 -0.30771,0.14536 -0.50853,0.24842 -0.59884,0.3032 -0.0907,0.057 -0.16783,0.1168 -0.23103,0.17952 0.46234,0.21857 1.06815,0.31073 1.67112,0.4045 z"
         style="fill:#000000;fill-opacity:1;fill-rule:evenodd;stroke:#000000;stroke-width:0.74958462;stroke-opacity:1"
         sodipodi:nodetypes="cccssssssccccsssssscc"
         id="path5825"
         inkscape:connector-curvature="0" />
      <path
         id="path5833"
         sodipodi:rx="328.01666"
         sodipodi:ry="328.01666"
         style="fill:#ffffff;fill-opacity:1;fill-rule:evenodd;stroke:#000000;stroke-width:41.38683701;stroke-opacity:1"
         sodipodi:type="arc"
         d="m 3095.5853,6537.4478 c 0,181.1586 -146.8581,328.0166 -328.0167,328.0166 -181.1586,0 -328.0167,-146.858 -328.0167,-328.0166 0,-181.1586 146.8581,-328.0167 328.0167,-328.0167 179.5495,0 325.7324,144.3557 327.9907,323.891"
         sodipodi:open="true"
         transform="matrix(0.01808205,0.00103543,-0.00103543,0.01808205,897.18098,644.18392)"
         sodipodi:cy="6537.4478"
         sodipodi:cx="2767.5686"
         sodipodi:end="6.2706074"
         sodipodi:start="0" />
      <text
         id="text5837"
         style="font-size:6.06492949px;line-height:125%;fill:#000000;fill-opacity:1;fill-rule:evenodd;stroke:#000000;stroke-width:0.74958467;stroke-opacity:1;font-family:Arial"
         xml:space="preserve"
         transform="matrix(0.87708926,-0.58623685,0.44601162,0.84202553,0,0)"
         sodipodi:linespacing="125%"
         y="1226.7217"
         x="451.42288"><tspan
           id="tspan5839"
           sodipodi:role="line"
           x="451.42288"
           style="fill:#000000;fill-opacity:1;stroke:#000000;stroke-width:0.74958467;stroke-opacity:1"
           y="1226.7217">3</tspan></text>
      <text
         id="text5841"
         style="font-size:6.13657141px;line-height:125%;fill:#000000;fill-opacity:1;fill-rule:evenodd;stroke:#000000;stroke-width:0.74958462;stroke-opacity:1;font-family:Arial"
         sodipodi:linespacing="125%"
         transform="matrix(0.96949669,-0.43362444,0.31193872,0.89194296,0,0)"
         y="1153.7413"
         x="597.82922"
         xml:space="preserve"><tspan
           id="tspan5843"
           y="1153.7413"
           x="597.82922"
           style="fill:#000000;fill-opacity:1;stroke:#000000;stroke-width:0.74958462;stroke-opacity:1"
           sodipodi:role="line">3</tspan></text>
      <path
         sodipodi:start="0"
         sodipodi:end="6.2706074"
         sodipodi:cx="2767.5686"
         sodipodi:cy="6537.4478"
         transform="matrix(0.02278401,0.00130468,-0.00126512,0.02209317,891.04922,625.46079)"
         sodipodi:open="true"
         d="m 3095.5853,6537.4478 c 0,181.1586 -146.8581,328.0166 -328.0167,328.0166 -181.1586,0 -328.0167,-146.858 -328.0167,-328.0166 0,-181.1586 146.8581,-328.0167 328.0167,-328.0167 179.5495,0 325.7324,144.3557 327.9907,323.891"
         sodipodi:type="arc"
         style="fill:#ffffff;fill-opacity:1;fill-rule:evenodd;stroke:#000000;stroke-width:33.35537338;stroke-opacity:1"
         sodipodi:ry="328.01666"
         sodipodi:rx="328.01666"
         id="path5851" />
      <path
         inkscape:connector-curvature="0"
         id="path5858"
         sodipodi:nodetypes="cccccccccccccccc"
         style="fill:#000000;fill-opacity:1;fill-rule:evenodd;stroke:#000000;stroke-width:0.74958462;stroke-opacity:1"
         d="m 945.62634,769.0865 0.54854,0.91608 c 0.79006,-0.20648 1.57504,-0.32525 2.36142,-0.4684 l 0.28184,0.4438 c -0.18378,0.93768 -0.47486,1.86921 -0.85992,2.7978 l -0.45776,0.12291 -1.56297,-2.19605 -0.61736,0.16747 -0.28185,-0.4438 0.49593,-0.20132 -0.5747,-0.89069 0.66683,-0.24774 z m 0.87387,1.46258 1.13652,1.57534 c 0.29788,-0.65988 0.50042,-1.37654 0.62793,-1.99729 -0.56302,0.11931 -1.13068,0.24073 -1.76445,0.42195 z" />
      <path
         inkscape:connector-curvature="0"
         id="path5860"
         sodipodi:nodetypes="ccccscccsscc"
         style="fill:#000000;fill-opacity:1;fill-rule:evenodd;stroke:#000000;stroke-width:0.74958462;stroke-opacity:1"
         d="m 946.06964,772.74094 0.28455,0.43663 c -1.04792,0.48008 -1.69624,1.22741 -2.65871,2.01787 l -0.23101,-0.35293 c 0.1247,-0.41564 0.19368,-0.91511 0.20441,-1.49368 0.0126,-0.57844 -0.0473,-1.13174 -0.1808,-1.65992 -0.0909,-0.37177 -0.24174,-0.75187 -0.45065,-1.13773 l 0.50416,-0.46235 c 0.18501,0.29409 0.41302,0.81546 0.5487,1.30466 0.13585,0.48919 0.20314,0.99648 0.20426,1.52441 0,0.5278 0.0548,0.80713 -0.057,1.23328 0.58671,-0.57245 1.03091,-1.00646 1.83222,-1.41024 z" />
      <path
         id="path12683"
         sodipodi:rx="328.01666"
         sodipodi:ry="328.01666"
         style="fill:#ffffff;fill-opacity:1;fill-rule:evenodd;stroke:#000000;stroke-width:35.97077179;stroke-opacity:1"
         sodipodi:type="arc"
         d="m 3095.5853,6537.4478 c 0,181.1586 -146.8581,328.0166 -328.0167,328.0166 -181.1586,0 -328.0167,-146.858 -328.0167,-328.0166 0,-181.1586 146.8581,-328.0167 328.0167,-328.0167 179.5495,0 325.7324,144.3557 327.9907,323.891"
         sodipodi:open="true"
         transform="matrix(0.02080463,0.00119134,-0.00119134,0.02080463,885.80334,635.57914)"
         sodipodi:cy="6537.4478"
         sodipodi:cx="2767.5686"
         sodipodi:end="6.2706074"
         sodipodi:start="0" />
      <path
         inkscape:connector-curvature="0"
         id="path12685"
         sodipodi:nodetypes="cccccssccc"
         style="fill:#000000;fill-opacity:1;fill-rule:evenodd;stroke:#000000;stroke-width:0.74958456;stroke-opacity:1"
         d="m 933.58861,779.08708 c -0.21453,-0.074 -0.51257,-0.27429 -0.72724,-0.34829 0.45019,-1.15221 0.99349,-2.20561 1.18674,-3.37252 -0.48424,0.17232 -0.66668,0.18993 -1.17445,0.20574 0.0577,-0.17627 0.115,-0.35055 0.17286,-0.52676 0.41954,-0.0189 0.50214,-0.0834 0.87881,-0.21891 0.22629,-0.0825 0.44479,-0.18208 0.62545,-0.3232 0.018,-0.0144 0.0331,-0.0262 0.0487,-0.0403 0.13854,0.0473 0.32682,0.17017 0.46512,0.21736 -0.3245,1.49411 -0.75184,2.93556 -1.47631,4.40678 z" />
      <text
         id="text5874"
         style="font-size:6.74193525px;line-height:125%;fill:#000000;fill-opacity:1;fill-rule:evenodd;stroke:#000000;stroke-width:0.7495845;stroke-opacity:1;font-family:Arial"
         xml:space="preserve"
         transform="matrix(1.0182155,0.05830613,-0.21492217,0.96980326,0,0)"
         y="739.25177"
         x="1074.0398"
         sodipodi:linespacing="125%"><tspan
           id="tspan5876"
           sodipodi:role="line"
           x="1074.0398"
           style="fill:#000000;fill-opacity:1;stroke:#000000;stroke-width:0.7495845;stroke-opacity:1"
           y="739.25177">3</tspan></text>
    </g>
  </g>
</svg>
